<?xml version="1.0" encoding="UTF-8" standalone="no"?>
<svg width="64px" height="64px" viewBox="0 0 64 64" version="1.1" xmlns="http://www.w3.org/2000/svg" xmlns:xlink="http://www.w3.org/1999/xlink">
    <defs></defs>
    <g id="Page-1" stroke="none" stroke-width="1" fill="none" fill-rule="evenodd">
        <g id="Armed" fill="#454545">
            <path d="M2.28954723,64.2459475 L17.4935718,64.2459475 C17.9875101,63.7520092 17.8896711,62.6042104 17.2754515,61.682881 L16.5992174,60.6685299 L21.0709894,46.3588597 C21.0709894,46.3588597 25.4451531,48.3020502 28.225824,48.1475685 C30.8112795,48.0039321 34.4863064,47.2532141 36.2750152,45.4645053 C37.1693708,43.6757965 37.1693684,40.098379 37.1693684,40.098379 L39.8524315,36.5209614 L61.3169368,36.5209614 L61.3169368,31.1548351 L64,31.1548351 L64,26.6830632 L61.3169368,26.6830632 L61.3169368,24 L59.5282281,24 L56.8451649,25.7887088 L10.434415,25.7887088 C9.88763508,25.7887088 9.13281305,26.1002781 8.73743727,26.4956538 L9.06504321,26.1680479 C8.28666985,26.9464213 6.86172866,27.1804451 5.86696478,26.6830632 L4.98098951,26.2400755 C4.48242356,25.9907926 4.15144478,26.2278414 4.24229439,26.7729391 L4.80857202,30.1706048 C4.89916791,30.7141802 4.72389811,31.5279035 4.41645675,31.9890656 L4.2963763,32.1691862 C3.6819735,33.0907904 2.4599578,34.3808561 1.58353483,35.0381734 L1.20685086,35.3206863 C0.322992686,35.98358 0.456762738,36.8043877 1.49837947,37.1515932 L4.9726104,38.3096702 L4.9726104,47.2532141 C4.9726104,47.2532141 1.39519285,52.6193404 0.500838457,55.3024036 C-1.28787032,61.5628843 2.28954723,64.2459475 2.28954723,64.2459475 Z M24.6566547,37.4153158 C22.1824081,37.4153158 20.6606853,39.3515172 21.2635325,41.7629059 L21.4812934,42.6339495 C21.748627,43.703284 22.7428417,44.9940499 23.766226,45.4278319 C23.766226,45.4278319 24.6484069,46.3588597 29.1201789,46.3588597 C32.6975964,46.3588597 33.5919508,45.4645053 33.5919508,45.4645053 C34.5798274,44.970567 35.3806596,43.6784526 35.3806596,42.5771305 L35.3806596,41.4111091 C35.3806596,39.2042934 33.5936489,37.4153158 31.3848663,37.4153158 L28.2258245,37.4153158 C28.2258245,37.4153158 28.06699,39.7220586 28.2258244,40.9927334 C28.3279541,41.8097709 28.8504731,43.6037315 28.8504731,43.6037315 C28.9994277,44.1374702 28.7786719,44.2694346 28.3787836,43.9094123 C28.3787836,43.9094123 26.8449805,42.6008512 26.4371156,41.8870878 C25.8011243,40.774103 25.5427613,37.4153158 25.5427613,37.4153158 L24.6566547,37.4153158 Z" id="Path-17"></path>
        </g>
    </g>
</svg>