<?xml version="1.0" encoding="UTF-8" standalone="no"?>
<svg width="64px" height="64px" viewBox="0 0 64 64" version="1.1" xmlns="http://www.w3.org/2000/svg" xmlns:xlink="http://www.w3.org/1999/xlink">
    <defs></defs>
    <g id="Page-1" stroke="none" stroke-width="1" fill="none" fill-rule="evenodd">
        <g id="Flight" fill="#454545">
            <g transform="translate(0.000000, 15.000000)">
                <path d="M2.00135785,30.5609756 C0.896038431,30.5609756 0,31.4531514 0,32.555922 L0,33.6879804 C0,34.7897589 0.903403877,35.6829268 1.99432723,35.6829268 L18.417402,35.6829268 C19.5188385,35.6829268 21.1132197,35.1196429 21.97289,34.4293434 L29.0564331,28.7413883 C29.9186384,28.0490533 31.202226,28.1584461 31.9279329,28.9909166 L37.7616991,35.6829268 L35.3718558,46.0775118 C35.0007668,47.6915575 36.0436913,49 37.7089778,49 L38.8350069,49 C40.4968527,49 42.1508844,47.691072 42.5273379,46.0851818 L45.4699768,33.532355 C45.7220473,32.4570626 45.2582398,30.9985548 44.4288605,30.2701431 L37.7616991,24.4146341 L44.5135311,17.6376377 C45.293832,16.8544286 46.6113976,16.8088493 47.4414718,17.5229931 L51.5554151,21.0623727 C52.3921712,21.7822654 53.7640401,21.7857462 54.609191,21.0788288 L63.0139595,14.0487509 C64.2861883,12.9846088 64.3707004,11.1715892 63.2046138,10.0011565 L63.3481075,10.145185 C62.1811741,8.97390239 60.2258474,8.9108547 58.9825367,10.0028062 L54.5680263,13.8798992 C53.7409632,14.6062767 52.3690056,14.631838 51.5093353,13.9415385 L44.4257922,8.25358344 C43.5635869,7.56124842 41.9753956,7 40.8632736,7 L29.5571923,7 C28.4518729,7 26.8973806,7.60583236 26.0785556,8.35921938 L17.5124663,16.2407336 C16.2954133,17.3605236 16.1132382,19.3448786 17.1075447,20.6755618 L16.5718085,19.9585846 C17.5652295,21.2880826 19.366829,21.4567757 20.5885418,20.3419882 L28.1178007,13.4716965 C28.934744,12.7262528 30.4828157,12.1219512 31.5903442,12.1219512 L31.6860164,12.1219512 C32.786906,12.1219512 33.0469971,12.7566642 32.2683499,13.5382134 L16.7198003,29.1447134 C15.9405246,29.9268934 14.4195611,30.5609756 13.3074391,30.5609756 L2.00135785,30.5609756 Z" id="Path-8"></path>
                <circle id="Oval-1" cx="48.5" cy="4.5" r="4.5"></circle>
            </g>
        </g>
    </g>
</svg>