<?xml version="1.0" encoding="UTF-8" standalone="no"?>
<svg width="64px" height="64px" viewBox="0 0 64 64" version="1.1" xmlns="http://www.w3.org/2000/svg" xmlns:xlink="http://www.w3.org/1999/xlink">
    <defs></defs>
    <g id="Page-1" stroke="none" stroke-width="1" fill="none" fill-rule="evenodd">
        <g id="Harddrugs" fill="#454545">
            <g id="Drugs" transform="translate(0.000000, 8.000000)">
                <path d="M35.085872,7.89601775 C36.7281163,6.41733429 39.2529848,6.54421424 40.7391548,8.19477322 L50.2724929,18.7826178 C51.7524704,20.4262994 51.623942,22.9547617 49.9786828,24.4361598 L25.914128,46.1039822 C24.2718837,47.5826657 21.7470152,47.4557858 20.2608452,45.8052268 L10.7275071,35.2173822 C9.24752959,33.5737006 9.37605797,31.0452383 11.0213172,29.5638402 L35.085872,7.89601775 Z M16.4299621,26.617653 L23.1317269,34.0607169 L21.4644132,35.561973 L14.7626483,28.118909 L16.4299621,26.617653 Z M28.9295324,15.3847931 L35.6312973,22.827857 L33.9639835,24.3291131 L27.2622186,16.8860492 L28.9295324,15.3847931 Z M35.3331176,9.76091314 L42.0348825,17.2039771 L40.3675687,18.7052331 L33.6658038,11.2621692 L35.3331176,9.76091314 Z" id="Rectangle-6"></path>
                <path d="M0.571767203,39.4381113 C1.28003392,38.8113827 2.36378982,38.8595183 3.01175894,39.5667507 L14.5531017,52.1636643 C15.1924053,52.8614385 15.1414374,53.9307907 14.4282328,54.5618887 L14.4282328,54.5618887 C13.7199661,55.1886173 12.6362102,55.1404817 11.9882411,54.4332493 L0.446898254,41.8363357 C-0.19240525,41.1385615 -0.141437423,40.0692093 0.571767203,39.4381113 L0.571767203,39.4381113 L0.571767203,39.4381113 Z" id="Rectangle-5"></path>
                <path d="M15.5631861,32 L23,40.4049759 L11.4368139,51 L4,42.5950241 L15.5631861,32 L15.5631861,32 Z" id="Rectangle-4"></path>
                <path d="M58.2638393,0 L59,0.82724044 L46.7361607,12 L46,11.1727596 L58.2638393,0 L58.2638393,0 Z" id="Rectangle-3"></path>
                <path d="M60.3984038,7 L62.7771744,10.9998116 C63.3403022,11.9466895 63.1607633,13.3509846 62.3259815,14.0703125 C62.3259815,14.0703125 61.711524,15 60.3984038,15 C59.4459215,15 58.5151867,13.990799 58.5151867,13.990799 C57.6783722,13.2858002 57.4583239,11.9436317 58.0196332,10.9998116 L60.3984038,7 Z" id="Triangle-1"></path>
                <path d="M42.429718,8.55090847 C43.3279605,7.76341918 44.703808,7.82541547 45.5156055,8.70327271 L48.4401038,11.8657509 C49.2461499,12.7373886 49.1744246,14.0797338 48.2731674,14.8698661 L45.8434494,17 L40,10.6810424 L42.429718,8.55090847 L42.429718,8.55090847 Z" id="Rectangle-2"></path>
            </g>
        </g>
    </g>
</svg>