<?xml version="1.0" encoding="UTF-8" standalone="no"?>
<svg width="64px" height="64px" viewBox="0 0 64 64" version="1.1" xmlns="http://www.w3.org/2000/svg" xmlns:xlink="http://www.w3.org/1999/xlink">
    <defs></defs>
    <g id="Page-1" stroke="none" stroke-width="1" fill="none" fill-rule="evenodd">
        <g id="OBM" fill="#454545">
            <path d="M32,64 C49.673112,64 64,49.673112 64,32 C64,14.326888 49.673112,0 32,0 C14.326888,0 0,14.326888 0,32 C0,49.673112 14.326888,64 32,64 Z M28,16.0068483 C28,14.3462119 29.3390201,13 31.0016655,13 L32.9983345,13 C34.6561086,13 36,14.3359915 36,16.0068483 L36,32.9931517 C36,34.6537881 34.6609799,36 32.9983345,36 L31.0016655,36 C29.3438914,36 28,34.6640085 28,32.9931517 L28,16.0068483 Z M32,50 C34.209139,50 36,48.209139 36,46 C36,43.790861 34.209139,42 32,42 C29.790861,42 28,43.790861 28,46 C28,48.209139 29.790861,50 32,50 Z" id="Oval-4"></path>
        </g>
    </g>
</svg>