<?xml version="1.0" encoding="UTF-8" standalone="no"?>
<svg width="64px" height="64px" viewBox="0 0 64 64" version="1.1" xmlns="http://www.w3.org/2000/svg" xmlns:xlink="http://www.w3.org/1999/xlink">
    <defs></defs>
    <g id="Page-1" stroke="none" stroke-width="1" fill="none" fill-rule="evenodd">
        <g id="Resistance">
            <g id="Fight" transform="translate(-1.000000, 5.000000)">
                <g id="clenched-fist" transform="translate(19.000000, 41.000000) rotate(-270.000000) translate(-19.000000, -41.000000) translate(0.000000, 22.000000)" fill="#454545">
                    <g id="Group">
                        <path d="M14.090875,10.621 L14.090875,1.9095 C14.090875,1.311 14.00775,0.653125 13.763125,0.29925 C7.839875,-1.3585 7.15825,4.405625 7.15825,4.405625 C6.96825,5.13 6.87325,6.476625 6.82575,7.866 C7.1345,7.792375 7.440875,7.74725 7.735375,7.74725 L7.735375,7.74725 C8.595125,7.74725 9.350375,8.086875 9.863375,8.704375 C10.507,9.481 10.727875,10.594875 10.54975,12.16475 L12.08875,12.16475 C13.04825,12.16475 13.85575,11.506875 14.090875,10.621 L14.090875,10.621 Z" id="Shape"></path>
                        <path d="M32.245375,23.09925 L31.276375,23.09925 C29.343125,23.09925 27.766125,21.83575 27.766125,20.280125 L27.766125,18.736375 C27.1415,19.192375 26.317375,19.475 25.40775,19.475 L24.43875,19.475 C22.503125,19.475 20.926125,18.213875 20.926125,16.65825 L20.926125,16.01225 C20.3015,16.46825 19.477375,16.7485 18.56775,16.7485 L17.59875,16.7485 C15.68925,16.7485 14.133625,15.515875 14.09325,13.98875 C13.55175,14.447125 12.8535,14.727375 12.091125,14.727375 L10.390625,14.727375 C10.165,15.71775 10.412,18.392 9.177,19.39425 C8.476375,20.045 7.5715,18.905 7.5715,18.905 C9.5475,16.750875 9.41925,13.30475 9.41925,13.30475 C9.915625,10.632875 8.14625,9.188875 7.12975,9.188875 C6.84,9.188875 6.519375,9.260125 6.18925,9.374125 C6.18925,9.374125 4.237,10.381125 3.458,11.084125 C2.7265,11.59 1.327625,13.254875 1.18275,13.425875 L1.147125,13.376 C-0.779,16.511 1.598375,19.73625 1.598375,19.73625 C4.666875,25.10375 10.428625,32.1955 10.428625,32.1955 C13.112375,34.496875 11.578125,35.836375 11.578125,35.836375 L31.69675,36.02875 L32.718,32.58025 C34.610875,28.9655 35.3685,24.65725 35.6345,21.006875 C35.233125,22.211 33.869875,23.09925 32.245375,23.09925 L32.245375,23.09925 Z" id="Shape"></path>
                        <path d="M31.276375,20.422625 L32.245375,20.422625 C33.523125,20.422625 34.606125,19.66025 34.606125,18.755375 L34.606125,8.26025 C34.606125,7.35775 33.523125,6.593 32.245375,6.593 L31.276375,6.593 C29.998625,6.593 28.918,7.355375 28.918,8.26025 L28.918,15.131125 L28.918,18.755375 C28.918,19.657875 29.998625,20.422625 31.276375,20.422625 L31.276375,20.422625 Z" id="Shape"></path>
                        <path d="M17.59875,14.0695 L18.56775,14.0695 C19.847875,14.0695 20.926125,13.307125 20.926125,12.40225 L20.926125,4.636 L20.926125,1.9095 C20.926125,1.007 19.847875,0.24225 18.56775,0.24225 L17.59875,0.24225 C16.321,0.24225 15.238,1.007 15.238,1.9095 L15.238,12.404625 C15.240375,13.307125 16.321,14.0695 17.59875,14.0695 L17.59875,14.0695 Z" id="Shape"></path>
                        <path d="M24.43875,16.796 L25.40775,16.796 C26.6855,16.796 27.766125,16.033625 27.766125,15.12875 L27.766125,8.26025 L27.766125,4.636 C27.766125,3.7335 26.6855,2.96875 25.40775,2.96875 L24.43875,2.96875 C23.158625,2.96875 22.078,3.731125 22.078,4.636 L22.078,12.404625 L22.078,15.131125 C22.078,16.033625 23.158625,16.796 24.43875,16.796 L24.43875,16.796 Z" id="Shape"></path>
                    </g>
                </g>
                <path d="M22,19.4782609 L22,7.30434783 L29,17.0434783 L38.3333333,0 L38.3333333,19.4782609 L50,9.73913043 L43,24.3478261 L61.6666667,19.4782609 L50,29.2173913 L64,31.6521739 L52.3333333,36.5217391 L54.6666667,41.3913043 L50,41.3913043 L64,51.1304348 L47.6666667,43.826087 L47.6666667,53.5652174 L40.6666667,48.6956522 L38.3333333,56 L33.6666667,53.5652174" id="Path-6" stroke="#454545"></path>
            </g>
        </g>
    </g>
</svg>