<?xml version="1.0" encoding="UTF-8" standalone="no"?>
<svg width="64px" height="64px" viewBox="0 0 64 64" version="1.1" xmlns="http://www.w3.org/2000/svg" xmlns:xlink="http://www.w3.org/1999/xlink">
    <defs></defs>
    <g id="Page-1" stroke="none" stroke-width="1" fill="none" fill-rule="evenodd">
        <g id="Suicide" fill="#454545">
            <g transform="translate(7.000000, 0.000000)">
                <path d="M15.1267369,44.1746067 C13.1449871,43.1975313 10.281679,43.6883499 8.77471251,45.2938801 C8.77471251,45.2938801 7.60755943e-16,53.7832267 0,58.8400132 C7.60755918e-16,63.8967996 6.41025641,63.8968003 6.41025641,63.8968003 L42.3076923,63.8968003 C42.3076923,63.8968003 50,63.8968003 50,58.8400132 C50,53.7832261 40.08866,45.1358534 40.08866,45.1358534 C38.4819682,43.6278961 35.5816825,43.1932316 33.5912118,44.1746067 L27.9472497,46.9572874 C25.9655,47.9343629 22.7611696,47.9386626 20.770699,46.9572874 L15.1267369,44.1746067 Z" id="Path-9"></path>
                <circle id="Oval-2" cx="24.5" cy="31.5" r="11.5"></circle>
                <rect id="Rectangle-11" x="22" y="0" width="5" height="24" rx="3"></rect>
            </g>
        </g>
    </g>
</svg>