<?xml version="1.0" encoding="UTF-8" standalone="no"?>
<svg width="64px" height="64px" viewBox="0 0 64 64" version="1.1" xmlns="http://www.w3.org/2000/svg" xmlns:xlink="http://www.w3.org/1999/xlink">
    <defs></defs>
    <g id="Page-1" stroke="none" stroke-width="1" fill="none" fill-rule="evenodd">
        <g id="Alcohol" fill="#454545">
            <g transform="translate(0.000000, 12.000000)">
                <path d="M60.8320031,9 L62.673509,12.2512426 C63.2205456,13.2170547 63.0450827,14.6438215 62.2089456,15.3671875 C62.2089456,15.3671875 61.92627,16 60.8320031,16 C60.0382679,16 59.4981704,15.3004971 59.4981704,15.3004971 C58.6707537,14.5822524 58.4425005,13.21875 58.9904973,12.2512426 L60.8320031,9 Z" id="Triangle-1-Copy"></path>
                <path d="M12.4067797,52 L0,40.56 L32.6843143,12.2490729 C35.1894915,10.0791057 39.725082,9.28866551 42.3898305,10.4 C42.3898305,10.4 42.2161954,10.2253402 42.3898305,10.4 C47.559322,7.28 56.8644068,1.42108547e-14 56.8644068,1.42108547e-14 C57.8983051,1.0609046e-08 58.9322034,-2.65840841e-08 59.9661017,1.03999999 C61,2.08 61,4.16 61,4.16 L49.6271186,15.6 L49.6798112,15.9180213 C50.2217162,19.1886398 48.549813,23.504493 45.9511281,25.5533206 L12.4067797,52 Z" id="Path-7"></path>
            </g>
        </g>
    </g>
</svg>