<?xml version="1.0" encoding="UTF-8" standalone="no"?>
<svg width="64px" height="64px" viewBox="0 0 64 64" version="1.1" xmlns="http://www.w3.org/2000/svg" xmlns:xlink="http://www.w3.org/1999/xlink">
    <defs></defs>
    <g id="Page-1" stroke="none" stroke-width="1" fill="none" fill-rule="evenodd">
        <g id="Psych" fill="#454545">
            <g transform="translate(0.000000, 9.000000)">
                <path d="M18.330012,28.4098651 C16.3634468,27.4138798 13.4585601,27.8379976 11.8865136,29.3907717 C11.8865136,29.3907717 1.15260873e-15,39.9042784 0,48.215406 C1.15260875e-15,56.5265336 8.20512821,54.8643081 8.20512821,54.8643081 L54.1538462,54.8643081 C54.1538462,54.8643081 64,54.8643081 64,48.215406 C64,41.5665039 50.4763764,29.3646901 50.4763764,29.3646901 C48.8821331,27.8413695 45.9863801,27.4185126 44.0289624,28.4098651 L34.7402684,33.1142109 C32.7737032,34.1101962 29.5761237,34.1055634 27.6187059,33.1142109 L18.330012,28.4098651 Z M32,34.1815867 L35.3103448,38.5644106 L28.6896552,38.5644106 L32,34.1815867 Z M32,38.5644106 L35.3103448,42.9472344 L28.6896552,42.9472344 L32,38.5644106 Z M28.6896552,42.9472344 L35.3103448,42.9472344 L32,53.904294 L28.6896552,42.9472344 Z" id="Path-9"></path>
                <circle id="Oval-2" cx="32" cy="15" r="15"></circle>
            </g>
        </g>
    </g>
</svg>